# xmcd
#
# Track frame offsets:
# 150
# 17785
# 33310
# 60030
# 78900
# 101812
# 150245
# 185252
# 217292
#
# Disc length: 3186 seconds
#
#
# Revision: 5
# Processed by: cddbd v1.5.2PL0 Copyright (c) Steve Scherf et al.
# Submitted via: FreeRIP 2.96 
#
DISCID=660c7009
DTITLE=Chain [AUS] [VIC] - Toward the Blues: 30th Anniversary Edition
DYEAR=1971
DGENRE=Blues
TTITLE0=Black and Blue [single version, Mar 1971] [additional track on 30th Anniversary edition of 'Toward the Blues', Sep 2001] [MLVox]
TTITLE1=Judgement [additional track on 30th Anniversary edition of 'Toward the Blues', Sep 2001] [MLVox]
TTITLE2=Blow in D [additional track on 30th Anniversary edition of 'Toward the Blues', Sep 2001] [MLVox]
TTITLE3=Thirty-Two Twenty Blues [from 'Toward the Blues', Sep 1971] [MLVox]
TTITLE4=Snatch It Back And Hold It [Adapted from the stage version] [from 'Toward the Blues', Sep 1971] [MLVox]
TTITLE5=Boogie [from 'Toward the Blues', Sep 1971] [MLVox]
TTITLE6=Booze Is Bad News Blues [from 'Toward the Blues', Sep 1971] [MLVox]
TTITLE7=Albert Goose's Gonna Turn the Blues [from 'Toward the Blues', Sep 1971] [MLVox]
TTITLE8=Black and Blue [from 'Toward the Blues', Sep 1971] [MLVox]
EXTD=
EXTT0=
EXTT1=
EXTT2=
EXTT3=
EXTT4=
EXTT5=
EXTT6=
EXTT7=
EXTT8=
PLAYORDER=
